<?xml version="1.0" encoding="UTF-8"?>
<svg id="Camada_1" data-name="Camada 1" xmlns="http://www.w3.org/2000/svg" viewBox="0 0 1000 1000">
  <defs>
    <style>
      .cls-1 {
        fill: #dab144;
      }
    </style>
  </defs>
  <g>
    <g>
      <path class="cls-1" d="M312.8,414.49l-51.4-152.3,57.06-10.06c7.56-1.33,12.09,1.65,13.6,8.56,6.42,29.86,12.47,60.16,17.76,90.59,15.12-34.41,29.1-68.62,41.95-102.63,3.02-6.96,7.56-10.78,14.74-12.05l59.71-10.53-90.7,177.36-9.07,76.05c-1.13,8.14-5.67,12.71-13.23,14.05l-51.02,9,10.58-88.03Z"/>
      <path class="cls-1" d="M415.59,409.21l6.8-51.08c6.8-48.82,30.99-75.75,78.6-84.15,47.62-8.4,71.42,12.73,65.38,61.79l-6.8,51.08c-6.8,48.44-29.85,75.55-78.23,84.08-47.99,8.46-72.18-12.97-65.76-61.72Zm83.89-8.75l7.56-58.77c1.51-11.6-2.65-15.78-10.2-14.45-7.94,1.4-12.85,6.42-14.36,17.65l-7.56,58.4c-1.89,12.43,2.65,16.16,10.96,14.7s12.09-6.29,13.6-17.52Z"/>
    </g>
    <path class="cls-1" d="M690.23,240.61c-7.94,1.4-13.89,10.76-15.02,18.9l-9.83,71.64c-5.29,37.97-16.25,54.64-23.81,55.97-3.4,.6-5.29-1.33-3.4-14.89l14.74-107.28c1.13-8.51-1.23-17.54-9.92-16.01l-46.86,8.26-18.8,126.89c-7.56,53.11,6.42,68.78,32.5,64.18,52.85-9.32,68.65-61.35,80.61-98.84l-14.15,7.66,21.01-26.08,6.91,28.68-10.04-9.9c-5.31,29.43-13.75,58.74-25.2,87.39l-.28,.71,41.95-7.4,27.97-198.42-48.37,8.53Z"/>
  </g>
  <g>
    <path class="cls-1" d="M416.77,573.99l-10.02,55.11c-7.16,39.92-24.06,57.23-54.49,62.59-14.32,2.52-32.5,2.87-43.95-5.85-4.3,27.25-9.66,53.61-14.68,74.9-1.43,5.26-4.65,8.34-10.02,9.28l-22.2,3.91c6.8-27.69,15.04-73.18,19.33-104.36l20.17-144.78,18.97-3.35c6.09-1.07,8.82,3.28,8.11,9.49l-.72,5.85c-.36,3.64-1.43,8.84-2.51,13.33l-14.68,58.07s-.36,1.37,.41,1.4c.91,.04,1.38-1.71,1.38-1.71,16.83-59.89,37.79-91.68,67.14-96.86,29.71-5.24,46.7,13.07,37.75,62.97Zm-103.46,76.6l-1.79,12.84c9.31,6.23,21.84,9.04,31.5,7.33,17.54-3.09,29-15.14,34.01-40.72l9.31-48.9c6.8-35.21-2.51-46.81-14.68-44.67-24.34,4.29-50.83,60.51-58.35,114.11Z"/>
    <path class="cls-1" d="M703.53,523.42l-10.02,55.11c-7.16,39.92-24.06,57.23-54.49,62.59-14.32,2.52-32.5,2.87-43.95-5.85-4.3,27.25-9.66,53.61-14.68,74.9-1.43,5.26-4.65,8.34-10.02,9.28l-22.2,3.91c6.8-27.69,15.04-73.18,19.33-104.36l20.17-144.78,18.97-3.35c6.09-1.07,8.82,3.28,8.11,9.49l-.72,5.85c-.36,3.64-1.43,8.84-2.51,13.33l-14.68,58.07s-.36,1.37,.41,1.4c.91,.04,1.38-1.71,1.38-1.71,16.83-59.89,37.79-91.68,67.14-96.86,29.71-5.24,46.7,13.07,37.75,62.97Zm-103.46,76.6l-1.79,12.84c9.31,6.23,21.84,9.04,31.5,7.33,17.54-3.09,29-15.14,34.01-40.72l9.31-48.9c6.8-35.21-2.51-46.81-14.68-44.67-24.34,4.29-50.83,60.51-58.35,114.11Z"/>
    <path class="cls-1" d="M427.54,616.83l7.16-52.81c5.73-43.25,28.82-67.91,67.48-74.72,43.67-7.7,64.62,12.05,58.89,52.8l-6.8,50.96c-5.73,43.97-30.72,68.42-70.46,75.43-44.03,7.76-61.99-10.55-56.27-51.65Zm95.22-12.85l8.23-59.09c3.58-24.97-8.23-36.85-28.64-33.25-20.05,3.54-32.94,16.9-36.52,42.95l-8.23,59.44c-3.58,24.62,8.95,36.37,29,32.83,20.76-3.66,32.94-17.26,36.16-42.89Z"/>
  </g>
</svg>