<?xml version="1.0" encoding="UTF-8"?>
<svg id="Camada_1" data-name="Camada 1" xmlns="http://www.w3.org/2000/svg" viewBox="0 0 1000 1000">
  <defs>
    <style>
      .cls-1 {
        fill: #773a88;
      }
    </style>
  </defs>
  <g>
    <g>
      <path class="cls-1" d="M80.57,501.19L29.17,339.82h57.06c7.56,0,12.09,3.78,13.6,10.96,6.42,30.99,12.47,62.35,17.76,93.72,15.12-31.74,29.1-63.49,41.95-95.23,3.02-6.42,7.56-9.45,14.74-9.45h59.71l-90.7,161.37-9.07,74.45c-1.13,7.94-5.67,11.72-13.23,11.72h-51.02l10.58-86.16Z"/>
      <path class="cls-1" d="M183.36,514.04l6.8-49.88c6.8-47.62,30.99-70.29,78.6-70.29s71.42,25.32,65.38,73.31l-6.8,49.88c-6.8,47.24-29.85,70.29-78.23,70.29s-72.18-25.7-65.76-73.31Zm83.89,6.05l7.56-57.44c1.51-11.34-2.65-16.25-10.2-16.25-7.94,0-12.85,4.16-14.36,15.12l-7.56,57.06c-1.89,12.09,2.65,16.63,10.96,16.63s12.09-4.16,13.6-15.12Z"/>
    </g>
    <path class="cls-1" d="M458,393.86c-7.94,0-13.89,8.31-15.02,16.25l-9.83,69.91c-5.29,37.03-16.25,51.77-23.81,51.77-3.4,0-5.29-2.27-3.4-15.49l14.74-104.68c1.13-8.31-1.23-17.76-9.92-17.76h-46.86l-18.8,123.57c-7.56,51.77,6.42,69.91,32.5,69.91,52.85,0,68.65-49.25,80.61-84.63l-14.15,5.16,21.01-22.37,6.91,29.9-10.04-11.67c-5.31,28.49-13.75,56.31-25.2,82.94l-.28,.66h41.95l27.97-193.49h-48.37Z"/>
  </g>
  <g>
    <path class="cls-1" d="M652.85,470.43l-11.02,58.66c-7.87,42.52-26.46,58.26-59.92,58.26-15.75,0-35.74-3.15-48.33-14.96-4.72,29.13-10.63,57.08-16.14,79.52-1.57,5.51-5.12,8.27-11.02,8.27h-24.41c7.48-29.13,16.53-77.55,21.26-111.02l22.18-155.3h20.86c6.69,0,9.7,5.32,8.91,12.01l-.79,6.3c-.39,3.94-1.57,9.45-2.76,14.17l-16.14,61.02s-.4,1.43,.45,1.62c1,.22,1.52-1.62,1.52-1.62,18.5-62.59,41.55-93.49,73.83-93.49s51.35,23.42,41.51,76.57Zm-113.77,64.17l-1.97,13.78c10.23,8.66,24.01,14.17,34.64,14.17,19.29,0,31.89-11.02,37.4-38.18l10.24-51.97c7.48-37.4-2.76-51.96-16.14-51.96-26.77,0-55.9,56.69-64.17,114.16Z"/>
    <path class="cls-1" d="M968.2,470.43l-11.02,58.66c-7.87,42.52-26.46,58.26-59.92,58.26-15.75,0-35.74-3.15-48.33-14.96-4.72,29.13-10.63,57.08-16.14,79.52-1.57,5.51-5.12,8.27-11.02,8.27h-24.41c7.48-29.13,16.53-77.55,21.26-111.02l22.18-155.3h20.86c6.69,0,9.7,5.32,8.91,12.01l-.79,6.3c-.39,3.94-1.57,9.45-2.76,14.17l-16.14,61.02s-.4,1.43,.45,1.62c1,.22,1.52-1.62,1.52-1.62,18.5-62.59,41.55-93.49,73.83-93.49s51.35,23.42,41.51,76.57Zm-113.77,64.17l-1.97,13.78c10.23,8.66,24.01,14.17,34.64,14.17,19.29,0,31.89-11.02,37.4-38.18l10.24-51.97c7.48-37.4-2.76-51.96-16.14-51.96-26.77,0-55.9,56.69-64.17,114.16Z"/>
    <path class="cls-1" d="M664.7,519.64l7.87-56.69c6.3-46.45,31.69-69.09,74.2-69.09,48.03,0,71.06,25.78,64.76,69.48l-7.48,54.72c-6.3,47.24-33.79,69.29-77.48,69.29-48.42,0-68.17-23.62-61.87-67.71Zm104.72,4.33l9.05-63.38c3.94-26.77-9.05-42.12-31.49-42.12s-36.22,12.2-40.15,40.15l-9.05,63.77c-3.94,26.38,9.84,41.73,31.89,41.73s36.22-12.6,39.76-40.15Z"/>
  </g>
</svg>