<?xml version="1.0" encoding="UTF-8"?>
<svg id="Camada_1" data-name="Camada 1" xmlns="http://www.w3.org/2000/svg" viewBox="0 0 1000 1000">
  <defs>
    <style>
      .cls-1 {
        fill: #dab144;
      }

      .cls-2 {
        fill: #773a88;
      }
    </style>
  </defs>
  <g>
    <g>
      <path class="cls-2" d="M80.57,584.63L29.17,432.33l57.06-10.06c7.56-1.33,12.09,1.65,13.6,8.56,6.42,29.86,12.47,60.16,17.76,90.59,15.12-34.41,29.1-68.62,41.95-102.63,3.02-6.96,7.56-10.78,14.74-12.05l59.71-10.53-90.7,177.36-9.07,76.05c-1.13,8.14-5.67,12.71-13.23,14.05l-51.02,9,10.58-88.03Z"/>
      <path class="cls-2" d="M183.36,579.36l6.8-51.08c6.8-48.82,30.99-75.75,78.6-84.15,47.62-8.4,71.42,12.73,65.38,61.79l-6.8,51.08c-6.8,48.44-29.85,75.55-78.23,84.08-47.99,8.46-72.18-12.97-65.76-61.72Zm83.89-8.75l7.56-58.77c1.51-11.6-2.65-15.78-10.2-14.45-7.94,1.4-12.85,6.42-14.36,17.65l-7.56,58.4c-1.89,12.43,2.65,16.16,10.96,14.7,8.31-1.47,12.09-6.29,13.6-17.52Z"/>
    </g>
    <path class="cls-2" d="M458,410.75c-7.94,1.4-13.89,10.76-15.02,18.9l-9.83,71.64c-5.29,37.97-16.25,54.64-23.81,55.97-3.4,.6-5.29-1.33-3.4-14.89l14.74-107.28c1.13-8.51-1.23-17.54-9.92-16.01l-46.86,8.26-18.8,126.89c-7.56,53.11,6.42,68.78,32.5,64.18,52.85-9.32,68.65-61.35,80.61-98.84l-14.15,7.66,21.01-26.08,6.91,28.68-10.04-9.9c-5.31,29.43-13.75,58.74-25.2,87.39l-.28,.71,41.95-7.4,27.97-198.42-48.37,8.53Z"/>
  </g>
  <g>
    <path class="cls-1" d="M652.85,452.96l-11.02,60.6c-7.87,43.9-26.46,62.93-59.92,68.83-15.75,2.78-35.74,3.15-48.33-6.44-4.72,29.97-10.63,58.96-16.14,82.37-1.57,5.79-5.12,9.17-11.02,10.21l-24.41,4.3c7.48-30.45,16.53-80.47,21.26-114.76l22.18-159.21,20.86-3.68c6.69-1.18,9.7,3.6,8.91,10.43l-.79,6.44c-.39,4.01-1.57,9.73-2.76,14.66l-16.14,63.86s-.4,1.5,.45,1.54c1,.04,1.52-1.88,1.52-1.88,18.5-65.85,41.55-100.82,73.83-106.51,32.67-5.76,51.35,14.37,41.51,69.25Zm-113.77,84.23l-1.97,14.12c10.23,6.86,24.01,9.94,34.64,8.06,19.29-3.4,31.89-16.64,37.4-44.78l10.24-53.77c7.48-38.72-2.76-51.48-16.14-49.12-26.77,4.72-55.9,66.55-64.17,125.48Z"/>
    <path class="cls-1" d="M968.2,397.36l-11.02,60.6c-7.87,43.9-26.46,62.93-59.92,68.83-15.75,2.78-35.74,3.15-48.33-6.44-4.72,29.97-10.63,58.96-16.14,82.37-1.57,5.79-5.12,9.17-11.02,10.21l-24.41,4.3c7.48-30.45,16.53-80.47,21.26-114.76l22.18-159.21,20.86-3.68c6.69-1.18,9.7,3.6,8.91,10.43l-.79,6.44c-.39,4.01-1.57,9.73-2.76,14.66l-16.14,63.86s-.4,1.5,.45,1.54c1,.04,1.52-1.88,1.52-1.88,18.5-65.85,41.55-100.82,73.83-106.51,32.67-5.76,51.35,14.37,41.51,69.25Zm-113.77,84.23l-1.97,14.12c10.23,6.86,24.01,9.94,34.64,8.06,19.29-3.4,31.89-16.64,37.4-44.78l10.24-53.77c7.48-38.72-2.76-51.48-16.14-49.12-26.77,4.72-55.9,66.55-64.17,125.48Z"/>
    <path class="cls-1" d="M664.7,500.08l7.87-58.08c6.3-47.56,31.69-74.67,74.2-82.17,48.03-8.47,71.06,13.25,64.76,58.06l-7.48,56.04c-6.3,48.35-33.79,75.24-77.48,82.95-48.42,8.54-68.17-11.6-61.87-56.8Zm104.72-14.14l9.05-64.97c3.94-27.46-9.05-40.53-31.49-36.57-22.05,3.89-36.22,18.59-40.15,47.23l-9.05,65.37c-3.94,27.07,9.84,39.99,31.89,36.11,22.83-4.03,36.22-18.98,39.76-47.17Z"/>
  </g>
</svg>