<?xml version="1.0" encoding="UTF-8"?>
<svg id="Camada_1" data-name="Camada 1" xmlns="http://www.w3.org/2000/svg" viewBox="0 0 1000 1000">
  <defs>
    <style>
      .cls-1 {
        fill: #dab144;
      }

      .cls-2 {
        fill: #773a88;
      }
    </style>
  </defs>
  <g>
    <g>
      <path class="cls-2" d="M312.9,401.54l-51.4-161.37h57.06c7.56,0,12.09,3.78,13.6,10.96,6.42,30.99,12.47,62.35,17.76,93.72,15.12-31.74,29.1-63.49,41.95-95.23,3.02-6.42,7.56-9.45,14.74-9.45h59.71l-90.7,161.37-9.07,74.45c-1.13,7.94-5.67,11.72-13.23,11.72h-51.02l10.58-86.16Z"/>
      <path class="cls-2" d="M415.69,414.39l6.8-49.88c6.8-47.62,30.99-70.29,78.6-70.29s71.42,25.32,65.38,73.31l-6.8,49.88c-6.8,47.24-29.85,70.29-78.23,70.29s-72.18-25.7-65.76-73.31Zm83.89,6.05l7.56-57.44c1.51-11.34-2.65-16.25-10.2-16.25-7.94,0-12.85,4.16-14.36,15.12l-7.56,57.06c-1.89,12.09,2.65,16.63,10.96,16.63s12.09-4.16,13.6-15.12Z"/>
    </g>
    <path class="cls-2" d="M690.33,294.22c-7.94,0-13.89,8.31-15.02,16.25l-9.83,69.91c-5.29,37.03-16.25,51.77-23.81,51.77-3.4,0-5.29-2.27-3.4-15.49l14.74-104.68c1.13-8.31-1.23-17.76-9.92-17.76h-46.86l-18.8,123.57c-7.56,51.77,6.42,69.91,32.5,69.91,52.85,0,68.65-49.25,80.61-84.63l-14.15,5.16,21.01-22.37,6.91,29.9-10.04-11.67c-5.31,28.49-13.75,56.31-25.2,82.94l-.28,.66h41.95l27.97-193.49h-48.37Z"/>
  </g>
  <g>
    <path class="cls-1" d="M416.87,579.37l-10.02,53.34c-7.16,38.66-24.06,52.98-54.49,52.98-14.32,0-32.5-2.86-43.95-13.61-4.3,26.49-9.66,51.91-14.68,72.31-1.43,5.01-4.65,7.52-10.02,7.52h-22.2c6.8-26.49,15.04-70.53,19.33-100.95l20.17-141.22h18.97c6.09,0,8.82,4.83,8.11,10.92l-.72,5.73c-.36,3.58-1.43,8.59-2.51,12.89l-14.68,55.49s-.36,1.3,.41,1.47c.91,.2,1.38-1.47,1.38-1.47,16.83-56.92,37.79-85.02,67.14-85.02s46.7,21.3,37.75,69.63Zm-103.46,58.35l-1.79,12.53c9.31,7.88,21.84,12.89,31.5,12.89,17.54,0,29-10.02,34.01-34.72l9.31-47.26c6.8-34.01-2.51-47.25-14.68-47.25-24.34,0-50.83,51.55-58.35,103.82Z"/>
    <path class="cls-1" d="M703.64,579.37l-10.02,53.34c-7.16,38.66-24.06,52.98-54.49,52.98-14.32,0-32.5-2.86-43.95-13.61-4.3,26.49-9.66,51.91-14.68,72.31-1.43,5.01-4.65,7.52-10.02,7.52h-22.2c6.8-26.49,15.04-70.53,19.33-100.95l20.17-141.22h18.97c6.09,0,8.82,4.83,8.11,10.92l-.72,5.73c-.36,3.58-1.43,8.59-2.51,12.89l-14.68,55.49s-.36,1.3,.41,1.47c.91,.2,1.38-1.47,1.38-1.47,16.83-56.92,37.79-85.02,67.14-85.02s46.7,21.3,37.75,69.63Zm-103.46,58.35l-1.79,12.53c9.31,7.88,21.84,12.89,31.5,12.89,17.54,0,29-10.02,34.01-34.72l9.31-47.26c6.8-34.01-2.51-47.25-14.68-47.25-24.34,0-50.83,51.55-58.35,103.82Z"/>
    <path class="cls-1" d="M427.64,624.12l7.16-51.55c5.73-42.24,28.82-62.83,67.48-62.83,43.67,0,64.62,23.45,58.89,63.18l-6.8,49.76c-5.73,42.96-30.72,63.01-70.46,63.01-44.03,0-61.99-21.48-56.27-61.57Zm95.22,3.94l8.23-57.63c3.58-24.34-8.23-38.3-28.64-38.3s-32.94,11.1-36.52,36.52l-8.23,57.99c-3.58,23.98,8.95,37.95,29,37.95s32.94-11.45,36.16-36.52Z"/>
  </g>
</svg>